<svg width="1520" height="518" viewBox="0 0 1520 518" fill="none" xmlns="http://www.w3.org/2000/svg">
<rect x="1315" y="517" width="1" height="517" transform="rotate(180 1315 517)" fill="url(#paint0_linear)" fill-opacity="0.15"/>
<rect x="967" y="517" width="1" height="517" transform="rotate(180 967 517)" fill="url(#paint1_linear)" fill-opacity="0.15"/>
<rect opacity="0.02" x="967" y="280" width="348" height="237" fill="url(#paint2_linear)"/>
<rect opacity="0.03" x="1315" y="207" width="428" height="72" fill="url(#paint3_linear)"/>
<path d="M205 279.5C205 279.776 205.224 280 205.5 280H2040V279H205.5C205.224 279 205 279.224 205 279.5Z" fill="url(#paint4_linear)" fill-opacity="0.15"/>
<rect width="2560" height="1" transform="matrix(1 0 0 -1 -520 207)" fill="url(#paint5_linear)" fill-opacity="0.15"/>
<rect width="1486" height="1" transform="matrix(1 0 0 -1 -520 58)" fill="url(#paint6_linear)" fill-opacity="0.15"/>
<rect opacity="0.3" x="-520" y="58" width="1486" height="148" fill="#F3F7FD"/>
<rect width="1123" height="1" transform="matrix(1 0 0 -1 917 518)" fill="url(#paint7_linear)" fill-opacity="0.15"/>
<defs>
<linearGradient id="paint0_linear" x1="1316.11" y1="1082.47" x2="1333.3" y2="1081.93" gradientUnits="userSpaceOnUse">
<stop stop-color="#40D381"/>
<stop offset="0.291063" stop-color="#43A3B7"/>
<stop offset="1" stop-color="#292CC8"/>
</linearGradient>
<linearGradient id="paint1_linear" x1="968.114" y1="1082.47" x2="985.304" y2="1081.93" gradientUnits="userSpaceOnUse">
<stop stop-color="#40D381"/>
<stop offset="0.291063" stop-color="#43A3B7"/>
<stop offset="1" stop-color="#292CC8"/>
</linearGradient>
<linearGradient id="paint2_linear" x1="957.663" y1="529.88" x2="1879.6" y2="237.572" gradientUnits="userSpaceOnUse">
<stop offset="0.00601963" stop-color="#40D381"/>
<stop offset="0.399237" stop-color="#43A3B7"/>
<stop offset="1" stop-color="#292CC8"/>
</linearGradient>
<linearGradient id="paint3_linear" x1="1253.41" y1="279" x2="1350.5" y2="49.2697" gradientUnits="userSpaceOnUse">
<stop offset="0.00601963" stop-color="#40D381"/>
<stop offset="0.136068" stop-color="#43A3B7"/>
<stop offset="1" stop-color="#292CC8"/>
</linearGradient>
<linearGradient id="paint4_linear" x1="304.396" y1="278.954" x2="304.398" y2="281.213" gradientUnits="userSpaceOnUse">
<stop offset="0.00601963" stop-color="#40D381"/>
<stop offset="0.158218" stop-color="#43A3B7"/>
<stop offset="1" stop-color="#292CC8"/>
</linearGradient>
<linearGradient id="paint5_linear" x1="138.667" y1="1.04583" x2="138.668" y2="-1.21326" gradientUnits="userSpaceOnUse">
<stop offset="0.00601963" stop-color="#40D381"/>
<stop offset="0.158218" stop-color="#43A3B7"/>
<stop offset="1" stop-color="#292CC8"/>
</linearGradient>
<linearGradient id="paint6_linear" x1="80.4916" y1="1.04583" x2="80.4941" y2="-1.21326" gradientUnits="userSpaceOnUse">
<stop offset="0.00601963" stop-color="#40D381"/>
<stop offset="0.158218" stop-color="#43A3B7"/>
<stop offset="1" stop-color="#292CC8"/>
</linearGradient>
<linearGradient id="paint7_linear" x1="1187.14" y1="0" x2="1187.14" y2="-1.09383" gradientUnits="userSpaceOnUse">
<stop stop-color="#2F45C4"/>
<stop offset="0.505208" stop-color="#43A3B7"/>
<stop offset="1" stop-color="#40D381"/>
</linearGradient>
</defs>
</svg>
