<svg width="17" height="17" viewBox="0 0 17 17" fill="none" xmlns="http://www.w3.org/2000/svg">
<path d="M2.15308 13.2604L2.6003 13.4841L2.73862 13.2074L2.55285 12.9601L2.15308 13.2604ZM3.73952 14.8469L4.03984 14.4471L3.79255 14.2613L3.51591 14.3997L3.73952 14.8469ZM0.56665 16.4333L0.119437 16.2097C0.0231896 16.4022 0.0609169 16.6347 0.213097 16.7869C0.365277 16.9391 0.597763 16.9768 0.790257 16.8805L0.56665 16.4333ZM5.09998 5.09998L4.82263 4.68396C4.68353 4.77669 4.59998 4.93281 4.59998 5.09998H5.09998ZM11.9 11.9V12.4C12.0672 12.4 12.2233 12.3164 12.316 12.1773L11.9 11.9ZM7.08814 5.6956L7.58134 5.6134L7.58134 5.6134L7.08814 5.6956ZM7.24618 6.64382L6.75298 6.72602L6.75298 6.72602L7.24618 6.64382ZM6.75693 7.77313L7.03428 8.18916L7.03428 8.18916L6.75693 7.77313ZM11.3044 9.91183L11.3866 9.41863L11.3866 9.41863L11.3044 9.91183ZM10.3561 9.75379L10.2739 10.247L10.2739 10.247L10.3561 9.75379ZM9.22683 10.243L8.81081 9.96569L8.81081 9.96569L9.22683 10.243ZM0.0666504 8.49998C0.0666504 10.3982 0.694362 12.1512 1.75332 13.5608L2.55285 12.9601C1.61952 11.7178 1.06665 10.1742 1.06665 8.49998H0.0666504ZM8.49998 0.0666504C3.84238 0.0666504 0.0666504 3.84238 0.0666504 8.49998H1.06665C1.06665 4.39467 4.39467 1.06665 8.49998 1.06665V0.0666504ZM16.9333 8.49998C16.9333 3.84238 13.1576 0.0666504 8.49998 0.0666504V1.06665C12.6053 1.06665 15.9333 4.39467 15.9333 8.49998H16.9333ZM8.49998 16.9333C13.1576 16.9333 16.9333 13.1576 16.9333 8.49998H15.9333C15.9333 12.6053 12.6053 15.9333 8.49998 15.9333V16.9333ZM3.4392 15.2466C4.84881 16.3056 6.60181 16.9333 8.49998 16.9333V15.9333C6.82581 15.9333 5.28221 15.3804 4.03984 14.4471L3.4392 15.2466ZM0.790257 16.8805L3.96313 15.2941L3.51591 14.3997L0.343044 15.9861L0.790257 16.8805ZM1.70587 13.0368L0.119437 16.2097L1.01386 16.6569L2.6003 13.4841L1.70587 13.0368ZM4.59998 5.09998V6.23332H5.59998V5.09998H4.59998ZM10.7667 12.4H11.9V11.4H10.7667V12.4ZM4.59998 6.23332C4.59998 9.63907 7.36089 12.4 10.7667 12.4V11.4C7.91318 11.4 5.59998 9.08679 5.59998 6.23332H4.59998ZM5.37733 5.51601L5.61892 5.35495L5.06422 4.5229L4.82263 4.68396L5.37733 5.51601ZM6.59494 5.7778L6.75298 6.72602L7.73938 6.56162L7.58134 5.6134L6.59494 5.7778ZM6.47958 7.35711L5.3893 8.08396L5.944 8.91601L7.03428 8.18916L6.47958 7.35711ZM6.75298 6.72602C6.79395 6.97186 6.68694 7.21886 6.47958 7.35711L7.03428 8.18916C7.56906 7.83263 7.84504 7.19561 7.73938 6.56162L6.75298 6.72602ZM5.61892 5.35495C6.00132 5.10002 6.51939 5.32447 6.59494 5.7778L7.58134 5.6134C7.38649 4.44428 6.0504 3.86545 5.06422 4.5229L5.61892 5.35495ZM12.316 12.1773L12.4771 11.9357L11.645 11.381L11.484 11.6226L12.316 12.1773ZM11.3866 9.41863L10.4383 9.26059L10.2739 10.247L11.2222 10.405L11.3866 9.41863ZM8.81081 9.96569L8.08396 11.056L8.91601 11.6107L9.64286 10.5204L8.81081 9.96569ZM10.4383 9.26059C9.80435 9.15493 9.16733 9.4309 8.81081 9.96569L9.64286 10.5204C9.7811 10.313 10.0281 10.206 10.2739 10.247L10.4383 9.26059ZM12.4771 11.9357C13.1345 10.9496 12.5557 9.61348 11.3866 9.41863L11.2222 10.405C11.6755 10.4806 11.8999 10.9987 11.645 11.381L12.4771 11.9357Z" fill="url(#paint0_linear)"/>
<defs>
<linearGradient id="paint0_linear" x1="18.6839" y1="3.12579" x2="-1.41725" y2="6.25882" gradientUnits="userSpaceOnUse">
<stop offset="0.00601963" stop-color="#40D381"/>
<stop offset="0.399237" stop-color="#43A3B7"/>
<stop offset="1" stop-color="#292CC8"/>
</linearGradient>
</defs>
</svg>
