<svg width="17" height="17" viewBox="0 0 17 17" fill="none" xmlns="http://www.w3.org/2000/svg">
<path d="M2.1531 13.2605L2.60031 13.4841L2.73863 13.2074L2.55286 12.9601L2.1531 13.2605ZM3.73953 14.8469L4.03985 14.4471L3.79257 14.2614L3.51593 14.3997L3.73953 14.8469ZM0.566666 16.4333L0.119452 16.2097C0.0232049 16.4022 0.0609321 16.6347 0.213112 16.7869C0.365292 16.9391 0.597778 16.9768 0.790272 16.8805L0.566666 16.4333ZM5.1 5.1L4.82265 4.68397C4.68355 4.77671 4.6 4.93282 4.6 5.1H5.1ZM11.9 11.9V12.4C12.0672 12.4 12.2233 12.3164 12.316 12.1773L11.9 11.9ZM7.08816 5.69561L7.58135 5.61342L7.58135 5.61341L7.08816 5.69561ZM7.24619 6.64384L6.753 6.72604L6.753 6.72604L7.24619 6.64384ZM6.75694 7.77315L7.03429 8.18917L7.03429 8.18917L6.75694 7.77315ZM11.3044 9.91184L11.3866 9.41864L11.3866 9.41864L11.3044 9.91184ZM10.3562 9.7538L10.274 10.247L10.274 10.247L10.3562 9.7538ZM9.22685 10.2431L8.81082 9.96571L8.81082 9.96571L9.22685 10.2431ZM0.0666656 8.5C0.0666656 10.3982 0.694377 12.1512 1.75334 13.5608L2.55286 12.9601C1.61953 11.7178 1.06667 10.1742 1.06667 8.5H0.0666656ZM8.5 0.0666666C3.8424 0.0666666 0.0666656 3.8424 0.0666656 8.5H1.06667C1.06667 4.39468 4.39468 1.06667 8.5 1.06667V0.0666666ZM16.9333 8.5C16.9333 3.8424 13.1576 0.0666666 8.5 0.0666666V1.06667C12.6053 1.06667 15.9333 4.39468 15.9333 8.5H16.9333ZM8.5 16.9333C13.1576 16.9333 16.9333 13.1576 16.9333 8.5H15.9333C15.9333 12.6053 12.6053 15.9333 8.5 15.9333V16.9333ZM3.43922 15.2467C4.84883 16.3056 6.60183 16.9333 8.5 16.9333V15.9333C6.82583 15.9333 5.28223 15.3805 4.03985 14.4471L3.43922 15.2467ZM0.790272 16.8805L3.96314 15.2941L3.51593 14.3997L0.343059 15.9861L0.790272 16.8805ZM1.70589 13.0369L0.119452 16.2097L1.01388 16.6569L2.60031 13.4841L1.70589 13.0369ZM4.6 5.1V6.23333H5.6V5.1H4.6ZM10.7667 12.4H11.9V11.4H10.7667V12.4ZM4.6 6.23333C4.6 9.63909 7.36091 12.4 10.7667 12.4V11.4C7.91319 11.4 5.6 9.0868 5.6 6.23333H4.6ZM5.37735 5.51603L5.61893 5.35497L5.06423 4.52292L4.82265 4.68397L5.37735 5.51603ZM6.59496 5.77781L6.753 6.72604L7.73939 6.56164L7.58135 5.61342L6.59496 5.77781ZM6.47959 7.35712L5.38932 8.08397L5.94402 8.91603L7.03429 8.18917L6.47959 7.35712ZM6.753 6.72604C6.79397 6.97187 6.68696 7.21888 6.47959 7.35712L7.03429 8.18917C7.56908 7.83265 7.84506 7.19563 7.73939 6.56164L6.753 6.72604ZM5.61893 5.35497C6.00133 5.10004 6.51941 5.32448 6.59496 5.77781L7.58135 5.61341C7.3865 4.4443 6.05041 3.86546 5.06423 4.52292L5.61893 5.35497ZM12.316 12.1773L12.4771 11.9358L11.645 11.3811L11.484 11.6226L12.316 12.1773ZM11.3866 9.41864L10.4384 9.26061L10.274 10.247L11.2222 10.405L11.3866 9.41864ZM8.81082 9.96571L8.08397 11.056L8.91602 11.6107L9.64287 10.5204L8.81082 9.96571ZM10.4384 9.26061C9.80437 9.15494 9.16735 9.43092 8.81082 9.96571L9.64287 10.5204C9.78112 10.313 10.0281 10.206 10.274 10.247L10.4384 9.26061ZM12.4771 11.9358C13.1345 10.9496 12.5557 9.6135 11.3866 9.41864L11.2222 10.405C11.6755 10.4806 11.9 10.9987 11.645 11.3811L12.4771 11.9358Z" fill="#1A1A1A"/>
</svg>
