<svg width="17" height="17" viewBox="0 0 17 17" fill="none" xmlns="http://www.w3.org/2000/svg">
<path d="M12.4667 3.96665H13.6M5.09998 0.56665H11.9C14.4037 0.56665 16.4333 2.59629 16.4333 5.09998V11.9C16.4333 14.4037 14.4037 16.4333 11.9 16.4333H5.09998C2.59629 16.4333 0.56665 14.4037 0.56665 11.9V5.09998C0.56665 2.59629 2.59629 0.56665 5.09998 0.56665ZM8.49998 11.9C6.62222 11.9 5.09998 10.3778 5.09998 8.49998C5.09998 6.62222 6.62222 5.09998 8.49998 5.09998C10.3778 5.09998 11.9 6.62222 11.9 8.49998C11.9 10.3778 10.3778 11.9 8.49998 11.9Z" stroke="url(#paint0_linear)"/>
<defs>
<linearGradient id="paint0_linear" x1="18.6839" y1="3.12579" x2="-1.41725" y2="6.25882" gradientUnits="userSpaceOnUse">
<stop offset="0.00601963" stop-color="#40D381"/>
<stop offset="0.399237" stop-color="#43A3B7"/>
<stop offset="1" stop-color="#292CC8"/>
</linearGradient>
</defs>
</svg>
