<svg width="17" height="17" viewBox="0 0 17 17" fill="none" xmlns="http://www.w3.org/2000/svg">
<path d="M12.4667 3.96667H13.6M5.1 0.566667H11.9C14.4037 0.566667 16.4333 2.59631 16.4333 5.1V11.9C16.4333 14.4037 14.4037 16.4333 11.9 16.4333H5.1C2.59631 16.4333 0.566667 14.4037 0.566667 11.9V5.1C0.566667 2.59631 2.59631 0.566667 5.1 0.566667ZM8.5 11.9C6.62223 11.9 5.1 10.3778 5.1 8.5C5.1 6.62223 6.62223 5.1 8.5 5.1C10.3778 5.1 11.9 6.62223 11.9 8.5C11.9 10.3778 10.3778 11.9 8.5 11.9Z" stroke="#1A1A1A"/>
</svg>
